<?xml version="1.0" standalone="no"?><!DOCTYPE svg PUBLIC "-//W3C//DTD SVG 1.1//EN" "http://www.w3.org/Graphics/SVG/1.1/DTD/svg11.dtd"><svg t="1674645952811" class="icon" viewBox="0 0 1024 1024" version="1.1" xmlns="http://www.w3.org/2000/svg" p-id="6560" xmlns:xlink="http://www.w3.org/1999/xlink" width="200" height="200"><path d="M300.379595 714.047273c0 32.765399-16.400762 49.166161-49.166161 49.166161L83.412686 763.213434c-31.862273 0-47.79341-16.400762-47.79341-49.166161L35.619276 274.622451c0-33.018274 15.931137-49.527411 47.79341-49.527411l167.800748 0c32.765399 0 49.166161 16.545262 49.166161 49.527411l0 125.859592L220.254286 400.482043 220.254286 294.202215 116.06971 294.202215l0 399.940168 104.184576 0 0-113.179708 80.125309 0L300.379595 714.047273z" p-id="6561"></path><path d="M688.94038 763.213434 611.596698 763.213434l0-265.482819c0-14.01651 1.589501-33.451775 4.804629-58.450293l-69.432301 274.730826-40.929655 0-69.793551-274.730826c3.179002 25.432019 4.804629 44.939533 4.804629 58.450293l0 265.482819-77.379807 0L363.670641 225.058915l76.007056 0 84.568687 297.453468c0.903126 3.215127 1.589501 11.343258 2.059127 24.384393 0-5.671629 0.686376-13.835885 2.059127-24.384393l84.604812-297.453468 76.007056 0L688.976505 763.213434z" p-id="6562"></path><path d="M1011.139491 714.047273c0 32.765399-16.292387 49.166161-48.841036 49.166161l-161.948494 0c-32.331899 0-48.479786-16.400762-48.479786-49.166161l0-128.279969 80.450434 0 0 109.711705 98.368447 0L930.689057 589.921682l-161.262118-152.664362c-11.668384-11.271008-17.520638-25.576519-17.520638-42.988781L751.906301 274.622451c0-33.018274 16.147887-49.527411 48.479786-49.527411l161.948494 0c32.548649 0 48.841036 16.292387 48.841036 48.841036l0 120.368588-80.486559 0L930.689057 292.793339 832.32061 292.793339l0 97.320821 161.262118 151.977986c11.704509 11.018133 17.556763 25.576519 17.556763 43.675157L1011.139491 714.047273z" p-id="6563"></path></svg>